<?xml version="1.0" encoding="utf-8"?>
<!-- Generator: Adobe Illustrator 18.1.0, SVG Export Plug-In . SVG Version: 6.00 Build 0)  -->
<svg version="1.1" id="Layer_1" xmlns="http://www.w3.org/2000/svg" xmlns:xlink="http://www.w3.org/1999/xlink" x="0px" y="0px"
	 viewBox="0 0 147 67.5" enable-background="new 0 0 147 67.5" xml:space="preserve">
<g>
	<path fill="#004990" d="M111.5,16.3h23.7v6.6H147v44.6H0V22.9h11.9v-6.6h23.7L73.5,0L111.5,16.3z"/>
	<polygon fill="#FFFFFF" points="108.6,28.1 108.6,35.3 113.2,35.3 114.2,28.1 	"/>
	<path fill="#FFFFFF" d="M131.8,35.4c0-1.2,1-2,2.1-2c1.1,0,2.1,0.9,2.1,2c0,1.2-1,2-2.1,2C132.8,37.4,131.8,36.6,131.8,35.4
		L131.8,35.4z M133.9,37.1c0.9,0,1.7-0.7,1.7-1.7c0-1-0.7-1.7-1.7-1.7c-0.9,0-1.7,0.7-1.7,1.7C132.2,36.4,133,37.1,133.9,37.1
		L133.9,37.1z M133.5,36.6h-0.4v-2.4h0.9c0.6,0,0.8,0.2,0.8,0.7c0,0.4-0.3,0.6-0.6,0.6l0.7,1h-0.4l-0.6-1h-0.4V36.6L133.5,36.6z
		 M133.9,35.2c0.3,0,0.6,0,0.6-0.4c0-0.3-0.3-0.3-0.5-0.3h-0.5v0.7H133.9L133.9,35.2z"/>
	<polygon fill="#FFFFFF" points="23.5,52.7 23.5,28.1 16.7,28.1 16.7,58.5 33.8,58.5 33.8,52.7 	"/>
	<polygon fill="#FFFFFF" points="91.1,58.5 107.1,58.5 107.1,52.7 97.8,52.7 97.8,48.9 107.1,48.9 107.1,43.2 97.8,43.2 97.8,39.4 
		107.1,39.4 107.1,33.5 91.1,33.5 91.1,33.5 	"/>
	<path fill="#FFFFFF" d="M55.9,55.3c0,1.8-1.4,3.2-3.2,3.2h-13c-1.8,0-3.2-1.4-3.2-3.2V36.7c0-1.8,1.4-3.2,3.2-3.2h13
		c1.8,0,3.2,1.4,3.2,3.2V55.3z M49.2,39.4h-5.9v13.3h5.9V39.4z"/>
	<g>
		<path fill="#FFFFFF" d="M80.5,33.5v19.2h-4.1V33.5h-5.9v19.2h-4.1V33.5h-6.7v21.8c0,1.8,1.4,3.2,3.2,3.2h8c1.3,0,2.6-0.9,2.6-2.3
			c0,1.3,1.2,2.3,2.6,2.3h8c1.8,0,3.2-1.4,3.2-3.2V33.5H80.5z"/>
	</g>
	<path fill="#FFFFFF" d="M130.7,49.1L130.7,49.1L130.7,49.1c-0.1-0.1-0.1-0.2-0.1-0.2l0-0.1c-1.1-2.1-3.4-3.9-7.3-5.5l-0.1-0.1
		c-0.8-0.3-3.1-1.2-3.3-2.7c-0.1-0.4,0.1-1.1,0.6-1.4c0.5-0.5,1.2-0.7,2.2-0.7c1.6,0,3.3,0.6,4.3,1c1.9,0.8,3.6,1.5,3.7,1.5l0.2,0.1
		v-5.5l-0.1,0c0,0-3.7-2.3-7.4-2.9c-0.4,0-0.8-0.1-1.3-0.1c-3.4,0-6,1.2-7.7,3.7c-1.4,2-1.6,5.2-0.4,7.6c1.5,2.7,4,3.8,6.4,4.9
		c1,0.4,2,0.9,3,1.5l0,0c1.1,0.6,1.6,1.6,1.4,2.5c-0.2,0.9-1.3,1.5-2.6,1.5c-0.2,0-0.4,0-0.5,0l-0.1,0c-2.5-0.4-7.7-2.3-7.8-2.3
		l-0.2-0.1v6l0.1,0c0,0,5,1.7,9.5,1.7h0c2.4,0,4.3-0.5,5.4-1.4c0,0,2.7-2.2,2.9-5.9C131.4,51.2,131.2,50.1,130.7,49.1z"/>
</g>
</svg>
